<svg id="Camada_1" data-name="Camada 1" xmlns="http://www.w3.org/2000/svg" viewBox="0 0 438.71 471.54"><defs><style>.cls-1{fill:#fff;}.cls-2{fill:#146600;}</style></defs><title>ballon</title><path d="M375.37,373.56l21.72,98L303.37,422a218.9,218.9,0,0,1-84,16.68C98.24,438.71,0,340.47,0,219.35S98.24,0,219.35,0,438.71,98.24,438.71,219.35A218.53,218.53,0,0,1,375.37,373.56Z" class="cls-2"/><path class="cls-1" d="M274.75,116.86a74,74,0,0,0-52.41,21.66q-1.67,1.66-3.06,3.33h0s-1.94-2.22-3.05-3.33a74.18,74.18,0,0,0-105,104.81q1.68,1.66,3.34,3.06h0l91.66,91.66a18.52,18.52,0,0,0,26.19,0h0l91.66-91.66h0q1.68-1.39,3.34-3.06a74.07,74.07,0,0,0-52.68-126.47Z"/></svg>